<svg width="21" height="21" viewBox="0 0 21 21" fill="none" xmlns="http://www.w3.org/2000/svg">
<path d="M18.375 9.78564V7.24544C18.375 5.81044 18.375 5.09294 18.0214 4.62481C17.6678 4.1567 16.8683 3.92942 15.2694 3.4749C14.1769 3.16436 13.2139 2.79023 12.4445 2.44869C11.3955 1.98302 10.871 1.75018 10.5 1.75018C10.129 1.75018 9.60452 1.98302 8.5555 2.44869C7.78609 2.79023 6.82311 3.16436 5.73066 3.4749C4.13169 3.92942 3.33219 4.1567 2.9786 4.62481C2.625 5.09294 2.625 5.81044 2.625 7.24544V9.78564C2.625 14.7076 7.05492 17.6607 9.26975 18.8296C9.80096 19.11 10.0665 19.2502 10.5 19.2502C10.9335 19.2502 11.199 19.11 11.7303 18.8296C13.9451 17.6607 18.375 14.7076 18.375 9.78564Z" stroke="white" stroke-width="1.3125" stroke-linecap="round"/>
<path d="M10.5 6.12518V7.87518" stroke="white" stroke-width="1.3125" stroke-linecap="round"/>
</svg>
